<?xml version="1.0" encoding="utf-8"?>
<!-- Generator: Adobe Illustrator 28.0.0, SVG Export Plug-In . SVG Version: 6.00 Build 0)  -->
<svg version="1.1" id="Calque_1" xmlns="http://www.w3.org/2000/svg" xmlns:xlink="http://www.w3.org/1999/xlink" x="0px" y="0px"
	 viewBox="0 0 48 48" style="enable-background:new 0 0 48 48;" xml:space="preserve">
<style type="text/css">
	.st0{fill:#FF2400;}
	.st1{fill:#FFFFFF;}
	.st2{fill:#FFFFFF;stroke:#FFFFFF;stroke-width:3;stroke-miterlimit:10;}
	.st3{fill:#FF2400;stroke:#FFFFFF;stroke-width:3;stroke-miterlimit:10;}
</style>
<g>
	<path class="st0" d="M10,47c-5,0-9-4-9-9V10c0-5,4-9,9-9h28c5,0,9,4,9,9v28c0,5-4,9-9,9H10z"/>
	<path class="st1" d="M38,2c4.4,0,8,3.6,8,8v28c0,4.4-3.6,8-8,8H10c-4.4,0-8-3.6-8-8V10c0-4.4,3.6-8,8-8H38 M38,0H10
		C4.5,0,0,4.5,0,10v28c0,5.5,4.5,10,10,10h28c5.5,0,10-4.5,10-10V10C48,4.5,43.5,0,38,0L38,0z"/>
</g>
<rect x="9.5" y="9.5" class="st2" width="9.7" height="9.7"/>
<rect x="19.2" y="9.5" class="st2" width="9.7" height="9.7"/>
<rect x="28.8" y="9.5" class="st3" width="9.7" height="9.7"/>
<rect x="9.5" y="19.2" class="st3" width="9.7" height="9.7"/>
<rect x="19.2" y="19.2" class="st3" width="9.7" height="9.7"/>
<rect x="28.8" y="19.2" class="st2" width="9.7" height="9.7"/>
<rect x="9.5" y="28.8" class="st2" width="9.7" height="9.7"/>
<rect x="19.2" y="28.8" class="st3" width="9.7" height="9.7"/>
<rect x="28.8" y="28.8" class="st2" width="9.7" height="9.7"/>
</svg>
